<svg xmlns="http://www.w3.org/2000/svg" viewBox="0 0 368.52 391.5"><path d="M210.7 113.88c0 11.22 4.43 21.55 12.79 29.88 11.76 11.7 24.65 13.29 33.41 12.59a46.25 46.25 0 0 0 28.08-12.7l1.83-1.83c5.26-5.24 8.49-8.46 11.63-11.49l21.6 20.95 15.22-15.17.21-.37-21.28-21.2 15.07-15.09-15.8-15.76-15.14 15.06s-44.23-44.16-49.72-49.68a14.53 14.53 0 0 1-4.76-11.1 14.89 14.89 0 0 1 4.42-10.78 16.67 16.67 0 0 1 11.3-4.79 15.33 15.33 0 0 1 11.11 4.57l.33.33.33-.31 9-8.92 6.21-6.18.27-.31-.42-.47a38 38 0 0 0-54.38.7 38.47 38.47 0 0 0-10.55 26.13c0 15.79 9 25.49 15.4 31.39L223.4 82.45c-7.83 7.79-12.7 19.85-12.7 31.43Zm28.56-15.58 13.37-13.32 29.92 29.52c-1.37 1.4-7.16 7.23-13.54 13.52-7.71 7.55-20.47 9.13-29.74-.09a20.3 20.3 0 0 1-6.19-14.58 21.75 21.75 0 0 1 6.18-15.05Zm97.53 109.45a109 109 0 0 0-153.17 0 106.85 106.85 0 0 0 0 151.94 108.92 108.92 0 0 0 153.17 0 106.81 106.81 0 0 0 0-151.94ZM260.2 363.56a80.26 80.26 0 0 1-56.89-23.38 79.27 79.27 0 0 1 0-112.84 80.88 80.88 0 0 1 113.79 0 79 79 0 0 1 23.56 56.41c0 44-36.08 79.81-80.46 79.81ZM152.08 128.75a123.12 123.12 0 0 1-65.87 109 83.89 83.89 0 0 1 28.16 29.3 82.73 82.73 0 0 1-13.72 100 83.81 83.81 0 0 1-59.39 24.45H.06L0 5.32h27.62a124.17 124.17 0 0 1 88 36.19 122.08 122.08 0 0 1 36.46 87.24ZM95.95 60.98a96.56 96.56 0 0 0-67.94-28.06v191.73a96.59 96.59 0 0 0 67.94-28.06 95.39 95.39 0 0 0 0-135.57ZM28.01 363.87H41.2c31 0 56.19-25 56.19-55.74a55.24 55.24 0 0 0-16.44-39.38 56.41 56.41 0 0 0-39.87-16.29s-10.79-.06-13.07-.06Z"/></svg>